<svg xmlns="http://www.w3.org/2000/svg" viewBox="0 0 320 360"><defs><pattern id="weave" width="4" height="4" patternUnits="userSpaceOnUse"><path d="M0 1h4M1 0v4" stroke="#899078" stroke-width=".3" opacity=".28"/></pattern><filter id="shadow"><feDropShadow dx="0" dy="12" stdDeviation="8" flood-opacity=".4"/></filter><path id="arc" d="M67 133a94 94 0 0 1 186 0"/></defs><g filter="url(#shadow)"><path d="M24 30 160 9 296 30v212l-35 52-101 53-101-53-35-52Z" fill="#363d2c" stroke="#151b12" stroke-width="12"/><path d="M32 37 160 18 288 37v202l-32 48-96 51-96-51-32-48Z" fill="url(#weave)" stroke="#9ea38a" stroke-width="2" stroke-dasharray="3 3"/><text fill="#d9ddc4" font-family="monospace" font-size="16" font-weight="700" letter-spacing="2"><textPath href="#arc" startOffset="50%" text-anchor="middle">OPENTAKEOFF ACADEMY</textPath></text><circle cx="160" cy="164" r="68" fill="#171e14" stroke="#93a27b" stroke-width="1.5"/><ellipse cx="160" cy="164" rx="79" ry="29" transform="rotate(-35 160 164)" fill="none" stroke="#adc88c" stroke-width="1"/><path d="m118 200 42-90 43 90h-22l-21-47-21 47Zm22-14h39v13h-39Z" fill="#b9cf9e"/><path d="M75 244h170" stroke="#a3b790"/><text x="160" y="267" text-anchor="middle" fill="#d9ddc4" font-family="monospace" font-size="16" font-weight="700" letter-spacing="4">DIVISION 09</text><text x="160" y="286" text-anchor="middle" fill="#b4c7a1" font-family="monospace" font-size="8" letter-spacing="1.5">REAL PLANS / MEASURED EVIDENCE</text><text x="160" y="313" text-anchor="middle" fill="#72ff42" font-family="monospace" font-size="9" letter-spacing="3">KENTUCKY · USA</text></g></svg>
