<svg xmlns="http://www.w3.org/2000/svg" width="480" height="480" viewBox="0 0 480 480" role="img" aria-labelledby="title desc">
<title id="title">OpenTakeoff Academy — JOURNEYMAN mission patch</title><desc id="desc">Ice-blue octagonal patch with an architectural A, orbital measurement rings and 2 rank marks. Commonwealth of Construction Agents. Insignia artwork; a credential is earned only after a passing proctored assessment.</desc>
<defs>
 <linearGradient id="edge" x1="0" y1="0" x2="1" y2="1"><stop stop-color="#ecf5e8"/><stop offset=".23" stop-color="#719baf"/><stop offset=".52" stop-color="#171c1a"/><stop offset=".78" stop-color="#719baf"/><stop offset="1" stop-color="#dbe6cf"/></linearGradient>
 <linearGradient id="field" x1="0" y1="0" x2=".8" y2="1"><stop stop-color="#1e3b49"/><stop offset=".55" stop-color="#1b2425"/><stop offset="1" stop-color="#101615"/></linearGradient>
 <linearGradient id="metal" x1="0" y1="0" x2=".2" y2="1"><stop stop-color="#ecf5e8"/><stop offset=".4" stop-color="#a9e7f2"/><stop offset=".62" stop-color="#719baf"/><stop offset="1" stop-color="#ecf5e8"/></linearGradient>
 <radialGradient id="halo"><stop stop-color="#a9e7f2" stop-opacity=".17"/><stop offset="1" stop-color="#a9e7f2" stop-opacity="0"/></radialGradient>
 <pattern id="weave" width="4" height="4" patternUnits="userSpaceOnUse"><path d="M0 1h4M1 0v4" stroke="#eeeadd" stroke-width=".5" opacity=".09"/><path d="m0 4 4-4" stroke="#080e0c" stroke-width="1" opacity=".5"/></pattern>
 <pattern id="engraving" width="3" height="3" patternUnits="userSpaceOnUse"><path d="M0 0h3" stroke="#080e12" stroke-width=".6" opacity=".26"/></pattern>
 <filter id="shadow" x="-25%" y="-20%" width="150%" height="150%"><feDropShadow dx="0" dy="12" stdDeviation="12" flood-color="#000" flood-opacity=".42"/></filter>
 <path id="outline" d="M133 27H347L443 123V342L347 438H133L37 342V123Z"/>
 <path id="top-arc" d="M86 228a154 154 0 0 1 308 0"/>
 <path id="bottom-arc" d="M70 244a170 170 0 0 0 340 0"/>
 <path id="monogram" d="m240 133 79 149h-35l-44-88-44 88h-35Zm-34 126h68v23h-68Z"/>
</defs>
<g filter="url(#shadow)">
 <use href="#outline" fill="#0c1110" stroke="#101310" stroke-width="12"/>
 <use href="#outline" fill="url(#field)" stroke="url(#edge)" stroke-width="7"/>
 <use href="#outline" fill="none" stroke="#a9e7f2" stroke-width="1.5" stroke-dasharray="1 4" transform="translate(240 240) scale(.962) translate(-240 -240)" opacity=".6"/>
 <use href="#outline" fill="url(#weave)" stroke="#719baf" stroke-width="1" transform="translate(240 240) scale(.936) translate(-240 -240)"/>
 <circle cx="240" cy="229" r="151" fill="none" stroke="#719baf" stroke-opacity=".4"/>
 <g stroke="#a9e7f2" stroke-opacity=".45" stroke-width="1"><path d="M240 74v14" transform="rotate(0 240 232)"/><path d="M240 74v6" transform="rotate(5 240 232)"/><path d="M240 74v6" transform="rotate(10 240 232)"/><path d="M240 74v6" transform="rotate(15 240 232)"/><path d="M240 74v6" transform="rotate(20 240 232)"/><path d="M240 74v6" transform="rotate(25 240 232)"/><path d="M240 74v14" transform="rotate(30 240 232)"/><path d="M240 74v6" transform="rotate(35 240 232)"/><path d="M240 74v6" transform="rotate(40 240 232)"/><path d="M240 74v6" transform="rotate(45 240 232)"/><path d="M240 74v6" transform="rotate(50 240 232)"/><path d="M240 74v6" transform="rotate(55 240 232)"/><path d="M240 74v14" transform="rotate(60 240 232)"/><path d="M240 74v6" transform="rotate(65 240 232)"/><path d="M240 74v6" transform="rotate(70 240 232)"/><path d="M240 74v6" transform="rotate(75 240 232)"/><path d="M240 74v6" transform="rotate(80 240 232)"/><path d="M240 74v6" transform="rotate(85 240 232)"/><path d="M240 74v14" transform="rotate(90 240 232)"/><path d="M240 74v6" transform="rotate(95 240 232)"/><path d="M240 74v6" transform="rotate(100 240 232)"/><path d="M240 74v6" transform="rotate(105 240 232)"/><path d="M240 74v6" transform="rotate(110 240 232)"/><path d="M240 74v6" transform="rotate(115 240 232)"/><path d="M240 74v14" transform="rotate(120 240 232)"/><path d="M240 74v6" transform="rotate(125 240 232)"/><path d="M240 74v6" transform="rotate(130 240 232)"/><path d="M240 74v6" transform="rotate(135 240 232)"/><path d="M240 74v6" transform="rotate(140 240 232)"/><path d="M240 74v6" transform="rotate(145 240 232)"/><path d="M240 74v14" transform="rotate(150 240 232)"/><path d="M240 74v6" transform="rotate(155 240 232)"/><path d="M240 74v6" transform="rotate(160 240 232)"/><path d="M240 74v6" transform="rotate(165 240 232)"/><path d="M240 74v6" transform="rotate(170 240 232)"/><path d="M240 74v6" transform="rotate(175 240 232)"/><path d="M240 74v14" transform="rotate(180 240 232)"/><path d="M240 74v6" transform="rotate(185 240 232)"/><path d="M240 74v6" transform="rotate(190 240 232)"/><path d="M240 74v6" transform="rotate(195 240 232)"/><path d="M240 74v6" transform="rotate(200 240 232)"/><path d="M240 74v6" transform="rotate(205 240 232)"/><path d="M240 74v14" transform="rotate(210 240 232)"/><path d="M240 74v6" transform="rotate(215 240 232)"/><path d="M240 74v6" transform="rotate(220 240 232)"/><path d="M240 74v6" transform="rotate(225 240 232)"/><path d="M240 74v6" transform="rotate(230 240 232)"/><path d="M240 74v6" transform="rotate(235 240 232)"/><path d="M240 74v14" transform="rotate(240 240 232)"/><path d="M240 74v6" transform="rotate(245 240 232)"/><path d="M240 74v6" transform="rotate(250 240 232)"/><path d="M240 74v6" transform="rotate(255 240 232)"/><path d="M240 74v6" transform="rotate(260 240 232)"/><path d="M240 74v6" transform="rotate(265 240 232)"/><path d="M240 74v14" transform="rotate(270 240 232)"/><path d="M240 74v6" transform="rotate(275 240 232)"/><path d="M240 74v6" transform="rotate(280 240 232)"/><path d="M240 74v6" transform="rotate(285 240 232)"/><path d="M240 74v6" transform="rotate(290 240 232)"/><path d="M240 74v6" transform="rotate(295 240 232)"/><path d="M240 74v14" transform="rotate(300 240 232)"/><path d="M240 74v6" transform="rotate(305 240 232)"/><path d="M240 74v6" transform="rotate(310 240 232)"/><path d="M240 74v6" transform="rotate(315 240 232)"/><path d="M240 74v6" transform="rotate(320 240 232)"/><path d="M240 74v6" transform="rotate(325 240 232)"/><path d="M240 74v14" transform="rotate(330 240 232)"/><path d="M240 74v6" transform="rotate(335 240 232)"/><path d="M240 74v6" transform="rotate(340 240 232)"/><path d="M240 74v6" transform="rotate(345 240 232)"/><path d="M240 74v6" transform="rotate(350 240 232)"/><path d="M240 74v6" transform="rotate(355 240 232)"/></g>
 <text fill="#ecf5e8" font-family="Arial,Helvetica,sans-serif" font-size="18" font-weight="700" letter-spacing="3"><textPath href="#top-arc" startOffset="50%" text-anchor="middle">OPENTAKEOFF ACADEMY</textPath></text>
 <text fill="#a9e7f2" font-family="Arial,Helvetica,sans-serif" font-size="8" font-weight="500" letter-spacing="1.5"><textPath href="#bottom-arc" startOffset="50%" text-anchor="middle">COMMONWEALTH OF CONSTRUCTION AGENTS</textPath></text>
 <circle cx="240" cy="218" r="108" fill="url(#halo)"/>
 <g fill="none"><circle cx="240" cy="218" r="105" stroke="#719baf" stroke-width=".6"/><circle cx="240" cy="218" r="98" stroke="#719baf" stroke-dasharray="1 5"/>
 <path d="M130 218h220M240 108v220" stroke="#a9e7f2" stroke-opacity=".13"/>
 <ellipse cx="240" cy="218" rx="117" ry="42" transform="rotate(-35 240 218)" stroke="#a9e7f2" stroke-width="1.5"/><ellipse cx="240" cy="218" rx="113" ry="41" transform="rotate(35 240 218)" stroke="#a9e7f2" stroke-opacity=".4" stroke-width="1.5"/></g>
 <g fill="#a9e7f2"><path d="m227 98 2.3 6.2 6.6.3-5.2 4.1 1.7 6.4-5.4-3.6-5.4 3.6 1.7-6.4-5.2-4.1 6.6-.3Z"/><path d="m253 98 2.3 6.2 6.6.3-5.2 4.1 1.7 6.4-5.4-3.6-5.4 3.6 1.7-6.4-5.2-4.1 6.6-.3Z"/></g>
 <use href="#monogram" transform="translate(0 4)" fill="#0a1011"/>
 <use href="#monogram" fill="url(#metal)" stroke="#ecf5e8" stroke-opacity=".45" stroke-width=".7"/>
 <use href="#monogram" fill="url(#engraving)"/>
 <path d="m179 272 61-119 61 119M216 270h48" fill="none" stroke="#ecf5e8" stroke-width=".6" opacity=".5"/>
 <circle cx="335" cy="153" r="4" fill="#a9e7f2" stroke="#1d2420" stroke-width="2"/>
 <g fill="#a9e7f2" font-family="monospace" font-size="8" letter-spacing="1.5"><text x="101" y="231" transform="rotate(-90 101 231)" text-anchor="middle">AEC / 09</text><text x="379" y="231" transform="rotate(90 379 231)" text-anchor="middle">OTA / 02</text></g>
 <path d="M117 317h246v46H117Z" fill="#111b19" stroke="#719baf" stroke-width="1"/>
 <path d="M117 317h8m-8 0v8m246-8h-8m8 0v8m-246 30v8h8m238-8v8h-8" fill="none" stroke="#a9e7f2" stroke-width="2"/>
 <text x="240" y="347" text-anchor="middle" fill="#ecf5e8" font-family="Arial,Helvetica,sans-serif" font-weight="700" font-size="26" letter-spacing="1.5">JOURNEYMAN</text>
 <g fill="#a9e7f2"><path d="m226.5 381 5-5 5 5v9l-5-5-5 5Z"/><path d="m243.5 381 5-5 5 5v9l-5-5-5 5Z"/></g>
 <text x="240" y="301" text-anchor="middle" fill="#a9e7f2" font-family="monospace" font-size="7" letter-spacing="2">KENTUCKY · USA</text>
</g></svg>
